<svg xmlns="http://www.w3.org/2000/svg" viewBox="0 0 200 36.86"><path d="M54.8 14.2a3.22 3.22 0 0 0-.45-.8 3 3 0 0 0-.68-.62 3.23 3.23 0 0 0-.9-.4 4 4 0 0 0-1.14-.16 3.08 3.08 0 0 0-1.82.47 1.5 1.5 0 0 0-.63 1.3 1.2 1.2 0 0 0 .4.93 4.14 4.14 0 0 0 1.1.68 13.8 13.8 0 0 0 1.53.6q.86.26 1.77.6a14.76 14.76 0 0 1 1.76.77 6.42 6.42 0 0 1 1.53 1.1 4.9 4.9 0 0 1 1.5 3.7 5.37 5.37 0 0 1-.52 2.4 5.2 5.2 0 0 1-1.42 1.78 6.27 6.27 0 0 1-2.13 1.1A9 9 0 0 1 52 28a8.13 8.13 0 0 1-2.44-.36 7.25 7.25 0 0 1-2.06-1A7 7 0 0 1 45.93 25a7.93 7.93 0 0 1-1.1-2.12l3.27-1.22a6 6 0 0 0 .72 1.18 4.8 4.8 0 0 0 .94.92 4.27 4.27 0 0 0 1.12.6 3.8 3.8 0 0 0 1.3.2 4.9 4.9 0 0 0 1.2-.14 2.8 2.8 0 0 0 .95-.42 2 2 0 0 0 .6-.7 2.13 2.13 0 0 0 .22-1 1.63 1.63 0 0 0-.4-1.13 3.7 3.7 0 0 0-1.1-.8 10.48 10.48 0 0 0-1.53-.62l-1.76-.6a16.3 16.3 0 0 1-1.76-.7 6.4 6.4 0 0 1-1.53-1 4.8 4.8 0 0 1 .14-7.14 6 6 0 0 1 2-1.1 8.06 8.06 0 0 1 2.67-.4 7.46 7.46 0 0 1 2.27.3 6.07 6.07 0 0 1 1.8.9 5.58 5.58 0 0 1 1.3 1.37 6.05 6.05 0 0 1 .8 1.7zM68.33 28a10.8 10.8 0 0 1-1.87-.16 7.67 7.67 0 0 1-1.75-.52 6.58 6.58 0 0 1-1.52-.94A5.68 5.68 0 0 1 62 25a7 7 0 0 1-.8-1.9 9.6 9.6 0 0 1-.3-2.5V9.16h3.58V20.6a6 6 0 0 0 .27 1.92 2.85 2.85 0 0 0 .77 1.22 2.9 2.9 0 0 0 1.23.64 6.5 6.5 0 0 0 1.63.2 6.38 6.38 0 0 0 1.6-.2 3 3 0 0 0 1.24-.64 2.87 2.87 0 0 0 .78-1.22 5.83 5.83 0 0 0 .27-1.92V9.15h3.57V20.6a8.68 8.68 0 0 1-.62 3.5 6.14 6.14 0 0 1-1.66 2.28 6.45 6.45 0 0 1-2.4 1.26 10 10 0 0 1-2.83.36zM79 9.15h8.13a8.24 8.24 0 0 1 2.87.43 5.13 5.13 0 0 1 1.86 1.13 4.07 4.07 0 0 1 1 1.6 5.67 5.67 0 0 1 .3 1.84 5.3 5.3 0 0 1-.16 1.14 3.73 3.73 0 0 1-1 1.93 4.07 4.07 0 0 1-1 .7 4.44 4.44 0 0 1 1.34.78 4.24 4.24 0 0 1 1.4 2.24 5.23 5.23 0 0 1 .15 1.25 6.14 6.14 0 0 1-.34 2 4.77 4.77 0 0 1-1.07 1.77 5.48 5.48 0 0 1-1.95 1.28 7.72 7.72 0 0 1-2.93.5H79V9.14zm7.7 7.3a3.37 3.37 0 0 0 2.12-.56 1.75 1.75 0 0 0 .7-1.45 2.78 2.78 0 0 0-.1-.7 1.52 1.52 0 0 0-.34-.63 1.78 1.78 0 0 0-.7-.46 3.38 3.38 0 0 0-1.2-.17h-4.6v4h4.14zm1 7.9a3.13 3.13 0 0 0 1.2-.2 2.08 2.08 0 0 0 .77-.5 1.82 1.82 0 0 0 .4-.7 2.64 2.64 0 0 0 .1-.77 3 3 0 0 0-.17-.88 1.77 1.77 0 0 0-.5-.77 2.67 2.67 0 0 0-1-.54 5.15 5.15 0 0 0-1.5-.22h-4.4v4.58h5.12zm17.64-10.16a3.23 3.23 0 0 0-.45-.8 2.94 2.94 0 0 0-.7-.62 3.23 3.23 0 0 0-.9-.4 4 4 0 0 0-1.13-.16 3.08 3.08 0 0 0-1.82.47 1.5 1.5 0 0 0-.64 1.3 1.2 1.2 0 0 0 .42.93 4.14 4.14 0 0 0 1.1.68 13.78 13.78 0 0 0 1.52.6q.86.26 1.76.6a14.68 14.68 0 0 1 1.76.77 6.42 6.42 0 0 1 1.53 1.1 4.9 4.9 0 0 1 1.5 3.7 5.35 5.35 0 0 1-.53 2.4 5.2 5.2 0 0 1-1.42 1.78 6.27 6.27 0 0 1-2.13 1.1 9 9 0 0 1-2.65.38 8.14 8.14 0 0 1-2.44-.36 7.24 7.24 0 0 1-2.06-1 7 7 0 0 1-1.6-1.67 7.93 7.93 0 0 1-1.08-2.12l3.25-1.22a5.92 5.92 0 0 0 .72 1.18 4.86 4.86 0 0 0 .94.92 4.28 4.28 0 0 0 1.13.6 3.82 3.82 0 0 0 1.3.2 4.9 4.9 0 0 0 1.2-.14 2.8 2.8 0 0 0 .95-.43 2 2 0 0 0 .6-.7 2.13 2.13 0 0 0 .22-1 1.63 1.63 0 0 0-.4-1.14 3.68 3.68 0 0 0-1.1-.8 10.5 10.5 0 0 0-1.53-.62l-1.76-.6a16.23 16.23 0 0 1-1.75-.7 6.4 6.4 0 0 1-1.53-1 4.8 4.8 0 0 1 .14-7.14 5.94 5.94 0 0 1 2-1.1 8.06 8.06 0 0 1 2.66-.42 7.46 7.46 0 0 1 2.27.32 6.07 6.07 0 0 1 1.78.9 5.6 5.6 0 0 1 1.3 1.36 6.06 6.06 0 0 1 .8 1.7zm13.3 13.8a8 8 0 0 1-2.6-.4 6.65 6.65 0 0 1-2-1.06 6.85 6.85 0 0 1-1.46-1.6 9.16 9.16 0 0 1-1-2 11.86 11.86 0 0 1-.56-2.22 15.23 15.23 0 0 1-.17-2.3 13.55 13.55 0 0 1 .18-2.18 12.14 12.14 0 0 1 .56-2.18 9.66 9.66 0 0 1 1-2 7.3 7.3 0 0 1 1.46-1.66 6.7 6.7 0 0 1 2-1.13 7.5 7.5 0 0 1 2.57-.4 7.62 7.62 0 0 1 2.42.35 7.23 7.23 0 0 1 1.9 1 6.57 6.57 0 0 1 2.3 2.78l-3.2 1.46a9.23 9.23 0 0 0-.7-.93 3.86 3.86 0 0 0-.74-.7 3.16 3.16 0 0 0-.88-.42 3.7 3.7 0 0 0-1.1-.14 3.35 3.35 0 0 0-2.43 1 4.17 4.17 0 0 0-.77 1.06 7.1 7.1 0 0 0-.5 1.3 8.7 8.7 0 0 0-.28 1.4 11.85 11.85 0 0 0-.08 1.38 10.34 10.34 0 0 0 .23 2.17 7 7 0 0 0 .72 2A4.32 4.32 0 0 0 116.8 24a3.1 3.1 0 0 0 1.85.55 3.06 3.06 0 0 0 1-.17 3.38 3.38 0 0 0 .9-.5 4.47 4.47 0 0 0 .75-.74 7.78 7.78 0 0 0 .67-1l3.28 1.24a9.53 9.53 0 0 1-1.06 1.87 6.67 6.67 0 0 1-1.45 1.45 6.54 6.54 0 0 1-1.86.94 7.38 7.38 0 0 1-2.26.36zm8.68-.3V9.15h8.6a7.8 7.8 0 0 1 2.95.48 5.15 5.15 0 0 1 1.9 1.3 4.7 4.7 0 0 1 1 1.84 7.63 7.63 0 0 1 .32 2.2 5.9 5.9 0 0 1-2 4.43 4.87 4.87 0 0 1-1.58.9l3.6 7.4h-4l-3.46-6.93h-3.76v6.93h-3.58zM136 17.4a2.9 2.9 0 0 0 1.15-.2 2 2 0 0 0 .75-.55 2 2 0 0 0 .4-.78 3.38 3.38 0 0 0 .13-.92 3.55 3.55 0 0 0-.1-.87 2.06 2.06 0 0 0-.4-.78 1.9 1.9 0 0 0-.73-.55 3 3 0 0 0-1.2-.2h-5.1v4.83h5.1zm8.8 10.3V9.15h3.58V27.7h-3.57zm7-18.54h8.14a8.24 8.24 0 0 1 2.85.43 5.12 5.12 0 0 1 1.85 1.12 4.07 4.07 0 0 1 1 1.6 5.66 5.66 0 0 1 .3 1.83 5.3 5.3 0 0 1-.12 1.15 3.84 3.84 0 0 1-.4 1 3.8 3.8 0 0 1-.7.9 4.07 4.07 0 0 1-1 .7 4.44 4.44 0 0 1 1.35.76 4.26 4.26 0 0 1 1.4 2.24 5.3 5.3 0 0 1 .15 1.25 6.14 6.14 0 0 1-.33 2 4.78 4.78 0 0 1-1.07 1.77 5.48 5.48 0 0 1-1.94 1.28 7.72 7.72 0 0 1-2.94.5h-8.5V9.14zm7.72 7.3a3.37 3.37 0 0 0 2.12-.56 1.75 1.75 0 0 0 .7-1.44 2.76 2.76 0 0 0-.1-.7 1.52 1.52 0 0 0-.34-.63 1.8 1.8 0 0 0-.7-.46 3.38 3.38 0 0 0-1.2-.17h-4.6v4h4.14zm1 7.9a3.13 3.13 0 0 0 1.2-.2 2.07 2.07 0 0 0 .76-.5 1.82 1.82 0 0 0 .4-.7 2.66 2.66 0 0 0 .1-.77 2.9 2.9 0 0 0-.13-.9 1.75 1.75 0 0 0-.5-.77 2.66 2.66 0 0 0-1-.54 5.14 5.14 0 0 0-1.6-.22h-4.36v4.58h5.1zm8.72 3.34V9.15h12.66v3.4h-9.08v3.9h5.34v3.38h-5.34v4.47h9.63v3.4h-13.28zm23 0a39.75 39.75 0 0 1 .28-4.3 23.3 23.3 0 0 1 .9-4.2 26 26 0 0 1 4.54-8.45h-9v-1.6H200v1.23a21.7 21.7 0 0 0-3.1 4.57 26.28 26.28 0 0 0-1.8 4.6 25.8 25.8 0 0 0-.85 4.37 37.72 37.72 0 0 0-.25 3.78h-1.88zM18.43 27.85A9.42 9.42 0 1 0 9 18.43a9.42 9.42 0 0 0 9.43 9.42zM13 16h3v-3h5v3h3v5h-3v3h-5v-3h-3v-5z"/><path d="M18.43 0A18.35 18.35 0 0 0 7 4l3.7 3.7a13.22 13.22 0 1 1-3 3L4 7a18.43 18.43 0 1 0 14.43-7z"/></svg>
